<svg width="297" height="64" viewBox="0 0 297 64" fill="none" xmlns="http://www.w3.org/2000/svg">
<mask id="mask0" mask-type="alpha" maskUnits="userSpaceOnUse" x="0" y="0" width="297" height="64">
<rect x="0.314941" width="296" height="63.7418" fill="#C4C4C4"/>
</mask>
<g mask="url(#mask0)">
<path d="M59.7842 20.6418L-3.96472 54.9283L10.5746 83.5564H71.4978L59.7842 20.6418Z" fill="#EBBD33"/>
<path d="M59.7842 20.7273L2.44951 -33.2044L-3.96472 55.2635L59.7842 20.7273Z" fill="#DAB137"/>
<path d="M72.5788 -86.8857L2.47656 -33.204L59.7497 20.7583L72.5788 -86.8857Z" fill="#EBB435"/>
<path d="M145.854 64.703L59.757 20.6704L71.569 83.631H133.062L145.854 64.703Z" fill="#FECA38"/>
<path d="M153.291 -19.0335L72.5569 -86.7776L59.7298 20.7555L153.291 -19.0335Z" fill="#FFB731"/>
<path d="M145.827 64.7883L153.24 -19.1069L59.8383 20.7273L145.827 64.7883Z" fill="#FCBC38"/>
<path d="M219.709 37.4168L211.748 -24.1362L152.968 -19.0335L219.709 37.4168Z" fill="#FFA535"/>
<path d="M145.736 65.2488C169.9 55.68 218.837 37.346 219.844 37.346L153.129 -18.977L145.736 65.2488Z" fill="#FEB03A"/>
<path d="M145.736 64.722L219.641 37.3105L216.262 83.6309H160.534L145.736 64.722Z" fill="#FEBA3B"/>
<path d="M245.943 83.4844L219.607 37.4521L216.116 83.4844H245.943Z" fill="#FFAC32"/>
<path d="M236.854 -65.116L211.717 -24.0706L219.607 37.4879L299.528 -65.116H236.854Z" fill="#FEBA3B"/>
<path d="M299.394 46.531L330.088 -34.0967L298.861 -64.3028L219.539 37.5586L299.394 46.531Z" fill="#FEB03A"/>
<path d="M300.037 46.5476L219.624 37.5225L245.977 83.591H291.632L300.037 46.5476Z" fill="#FCBC38"/>
</g>
</svg>
