<svg width="296" height="64" viewBox="0 0 296 64" fill="none" xmlns="http://www.w3.org/2000/svg">
<mask id="mask0" mask-type="alpha" maskUnits="userSpaceOnUse" x="0" y="0" width="296" height="64">
<rect width="296" height="63.7418" fill="#C4C4C4"/>
</mask>
<g mask="url(#mask0)">
<path d="M77.9505 37.7641L88.2611 -32.7188L-5.87565 -15.86L-6.01585 -5.1532L77.9505 37.7641Z" fill="#2B646B"/>
<path d="M-5.98712 44.3621L77.9654 37.4474L-5.98712 -5.21191L-5.98712 44.3621Z" fill="#316572"/>
<path d="M30.4347 95.7135L78.2467 36.8589L-6.04314 44.3621V65.9518L30.4347 95.7135Z" fill="#294F62"/>
<path d="M78.2468 36.2704L30.0944 96.0189L34.3722 168.987L98.4966 117.49L78.2468 36.2704Z" fill="#244056"/>
<path d="M123.246 38.9189L78.2466 36.5647L98.5003 117.579L123.246 38.9189Z" fill="#214151"/>
<path d="M172.464 97.1848L123.074 39.1656L98.5285 117.491L172.464 169.282V97.1848Z" fill="#234457"/>
<path d="M122.662 39.1041L87.9875 -32.2239L78.0386 36.7019L122.662 39.1041Z" fill="#27515D"/>
<path d="M111.358 -59.4492L88.2229 -31.7311L123.246 40.6845L111.358 -59.4492Z" fill="#2B646B"/>
<path d="M217.745 -14.0504L113.965 -33.1781L122.956 39.2272L217.745 -14.0504Z" fill="#326673"/>
<path d="M230.659 47.5595L217.342 -13.8361L122.544 39.3504L230.659 47.5595Z" fill="#294F62"/>
<path d="M230.941 47.3628L123.05 39.2565L172.404 97.5016L230.941 47.3628Z" fill="#294F62"/>
<path d="M281.655 102.883L230.654 47.5164L172.117 97.355L281.655 102.883Z" fill="#2F5667"/>
<path d="M310.424 22.4435L230.603 47.5595L281.571 102.912L310.424 22.4435Z" fill="#3C7477"/>
<path d="M310.711 23.044L217.167 -14.4851L230.659 47.6182L310.711 23.044Z" fill="#357880"/>
<path d="M217.167 -14.1849L272.825 -58.9146L310.711 23.044L217.167 -14.1849Z" fill="#3A948A"/>
<path d="M309.85 22.7436L359.781 -31.5798L272.803 -58.9146L309.85 22.7436Z" fill="#45A18C"/>
<path d="M281.471 103.025L309.85 23.3442L338.831 48.2635L281.471 103.025Z" fill="#4F8D78"/>
<path d="M338.831 68.6794V48.2635L281.59 102.963L338.831 68.6794Z" fill="#4B7871"/>
</g>
</svg>
