<svg width="297" height="64" viewBox="0 0 297 64" fill="none" xmlns="http://www.w3.org/2000/svg">
<mask id="mask0" mask-type="alpha" maskUnits="userSpaceOnUse" x="0" y="0" width="297" height="64">
<rect x="0.944824" width="296" height="63.7418" fill="#C4C4C4"/>
</mask>
<g mask="url(#mask0)">
<path d="M67.3128 34.5167L59.4652 -24.8938L1.51782 -19.9687L67.3128 34.5167Z" fill="#FFA535"/>
<path d="M-5.61087 61.3798C18.2105 52.1441 66.4543 34.4483 67.4468 34.4483L1.67719 -19.9143L-5.61087 61.3798Z" fill="#FEB03A"/>
<path d="M-5.61087 60.8712L67.2463 34.4139L63.915 79.1219H8.97703L-5.61087 60.8712Z" fill="#FEBA3B"/>
<path d="M93.1751 78.9808L67.2127 34.5509L63.771 78.9808H93.1751Z" fill="#FFAC32"/>
<path d="M84.2154 -64.4473L59.4346 -24.8306L67.2129 34.5851L146.002 -64.4473H84.2154Z" fill="#FF8932"/>
<path d="M145.869 43.3136L176.128 -34.5076L145.344 -63.6623L67.1459 34.6535L145.869 43.3136Z" fill="#FF7E2F"/>
<path d="M146.504 43.3297L67.2296 34.6187L93.209 79.0836H138.218L146.504 43.3297Z" fill="#FF9334"/>
<path d="M189.842 79.0151L145.955 43.0486L138.117 79.0151H189.842Z" fill="#F97F2C"/>
<path d="M263.631 23.6596L175.579 -34.2266L145.68 43.3296L189.808 79.152H208.988L263.631 23.6596Z" fill="#F65E2F"/>
<path d="M251.562 79.1517L263.987 23.3235L208.888 79.1517L251.562 79.1517Z" fill="#ED5629"/>
<path d="M304.961 59.2334L263.632 23.9407L251.151 79.0508H283.172L304.961 59.2334Z" fill="#ED4F2A"/>
<path d="M232.361 -55.8635L176.129 -33.6645L263.735 23.922L232.361 -55.8635Z" fill="#FC4D32"/>
<path d="M263.631 23.9402L306.085 -91.3853L232.36 -55.864L263.631 23.9402Z" fill="#EF462D"/>
<path d="M342.906 24.5028L332.479 -4.49486H274.211L263.083 24.5028L304.808 59.1814L342.906 24.5028Z" fill="#FA4B30"/>
</g>
</svg>
