<svg width="297" height="65" viewBox="0 0 297 65" fill="none" xmlns="http://www.w3.org/2000/svg">
<mask id="mask0" mask-type="alpha" maskUnits="userSpaceOnUse" x="0" y="0" width="297" height="65">
<rect x="0.629883" y="0.398926" width="296" height="63.7418" fill="#C4C4C4"/>
</mask>
<g mask="url(#mask0)">
<path d="M32.7214 79.6037L4.04123 -15.3708L-19.9048 88.4887L32.7214 79.6037Z" fill="#619974"/>
<path d="M66.707 35.5596L70.4904 -100.641L4.08636 -15.344L66.707 35.5596Z" fill="#7FA772"/>
<path d="M66.7069 35.5595L4.02979 -15.3979L32.6562 79.4589L66.7069 35.5595Z" fill="#82A066"/>
<path d="M92.0207 115.074L66.707 35.5596L32.6435 79.4737L92.0207 115.074Z" fill="#9BA35A"/>
<path d="M160.999 54.949L91.9671 115.074L148.366 175.512L160.999 54.949Z" fill="#EBB435"/>
<path d="M240.478 130.945L160.977 55.0703L148.346 175.509L240.478 130.945Z" fill="#FFB731"/>
<path d="M160.977 55.0705L66.6427 35.614L91.9671 115.105L160.977 55.0705Z" fill="#C1A746"/>
<path d="M126.296 -17.7202L66.3917 35.5595L161.923 55.4455L126.296 -17.7202Z" fill="#D5A53F"/>
<path d="M126.926 -16.9696L70.2444 -101.819L66.3917 35.5596L126.926 -16.9696Z" fill="#A5A75E"/>
<path d="M161.923 55.8209L190.298 -16.2192H126.926L161.923 55.8209Z" fill="#E59C33"/>
<path d="M240.227 32.431L190.336 -16.227L161.114 55.2688L240.227 32.431Z" fill="#F7992F"/>
<path d="M240.246 32.4428L226.843 -78.7733L190.365 -16.2269L240.246 32.4428Z" fill="#F98B2A"/>
<path d="M240.372 130.945C240.62 98.0067 240.737 33.3621 240.143 32.4182L161.076 55.2233L240.372 130.945Z" fill="#FEA231"/>
<path d="M297.92 125.267L240.204 32.3445L240.372 130.945L297.92 125.267Z" fill="#FAA035"/>
<path d="M324.005 79.6268L240.163 32.3201L297.979 125.347L324.005 79.6268Z" fill="#FF9132"/>
<path d="M302.689 -17.1242L226.754 -77.7169L240.204 32.4918L302.689 -17.1242Z" fill="#FD8225"/>
<path d="M324.005 79.9216L302.688 -17.7141L240.287 32.3691L324.005 79.9216Z" fill="#FF7719"/>
</g>
</svg>
