<svg width="52" height="53" viewBox="0 0 52 53" fill="none" xmlns="http://www.w3.org/2000/svg">
<ellipse cx="26.2324" cy="26.4913" rx="25.5866" ry="25.8544" fill="url(#paint0_linear)"/>
<path d="M36.4468 13.6135H17.2972C15.1352 13.6135 13.4879 15.278 13.4879 17.4627V36.8127C13.4879 38.9974 15.1352 40.6619 17.2972 40.6619H36.4468C38.6089 40.6619 40.2562 38.9974 40.2562 36.8127V17.4627C40.2562 15.278 38.6089 13.6135 36.4468 13.6135ZM26.872 35.2522C31.2991 35.2522 34.9025 31.7151 34.9025 27.4498C34.9025 26.7216 34.7996 25.8893 34.5937 25.2651H36.8587V36.2925C36.8587 36.8127 36.4468 37.3328 35.8291 37.3328H17.915C17.4002 37.3328 16.8854 36.9167 16.8854 36.2925V25.1611H19.2534C19.0475 25.8893 18.9445 26.6175 18.9445 27.3458C18.8416 31.7151 22.445 35.2522 26.872 35.2522ZM26.872 32.1312C23.9893 32.1312 21.7243 29.8425 21.7243 27.0337C21.7243 24.2248 23.9893 21.9361 26.872 21.9361C29.7548 21.9361 32.0198 24.2248 32.0198 27.0337C32.0198 29.9466 29.7548 32.1312 26.872 32.1312ZM36.7557 20.9998C36.7557 21.624 36.2409 22.1442 35.6232 22.1442H32.7405C32.1227 22.1442 31.608 21.624 31.608 20.9998V18.1909C31.608 17.5667 32.1227 17.0466 32.7405 17.0466H35.6232C36.2409 17.0466 36.7557 17.5667 36.7557 18.1909V20.9998Z" fill="white"/>
<defs>
<linearGradient id="paint0_linear" x1="11.5201" y1="46.5285" x2="45.7885" y2="11.3352" gradientUnits="userSpaceOnUse">
<stop stop-color="#EEA054"/>
<stop offset="0.502762" stop-color="#D64763"/>
<stop offset="1" stop-color="#B62A99"/>
</linearGradient>
</defs>
</svg>
