<svg width="50" height="51" viewBox="0 0 50 51" fill="none" xmlns="http://www.w3.org/2000/svg">
<rect x="0.200043" y="0.887451" width="49.2076" height="49.2076" rx="10" fill="#2787F5"/>
<path d="M40.5876 34.1586C40.5876 34.0244 40.4597 34.0244 40.4597 33.8901C39.9478 32.816 38.796 31.4733 37.2602 29.9964C36.4924 29.3251 36.1084 28.788 35.8525 28.5195C35.4685 27.9824 35.4686 27.5796 35.5965 27.0426C35.7245 26.6398 36.2364 25.9684 37.1322 24.76C37.6442 24.0887 37.9001 23.6859 38.284 23.2831C40.2037 20.5978 41.0995 18.8523 40.8436 18.0467L40.7156 17.9125C40.5877 17.7782 40.4596 17.644 40.2037 17.644C39.9477 17.5097 39.5638 17.5097 39.1799 17.644H34.3168C34.1888 17.644 34.1888 17.644 33.9328 17.644C33.8048 17.644 33.6769 17.644 33.6769 17.644H33.5489H33.4209L33.2929 17.7782C33.1649 17.9125 33.1649 17.9125 33.1649 18.0467C32.653 19.5237 32.0131 20.732 31.3733 22.0747C30.9893 22.746 30.6054 23.4174 30.2215 23.9544C29.8375 24.4915 29.5816 24.8943 29.3256 25.1628C29.0697 25.4314 28.8137 25.5656 28.6857 25.8342C28.5578 25.9684 28.3018 26.1027 28.3018 25.9684C28.1738 25.9684 28.0458 25.9684 28.0458 25.8342C27.9179 25.6999 27.7899 25.5656 27.6619 25.4313C27.534 25.2971 27.5339 25.0286 27.406 24.76C27.406 24.4915 27.406 24.223 27.406 24.0887C27.406 23.9544 27.406 23.5516 27.406 23.2831C27.406 22.8803 27.406 22.6118 27.406 22.4775C27.406 22.0747 27.406 21.5377 27.406 21.0006C27.406 20.4635 27.406 20.0607 27.406 19.7922C27.406 19.5237 27.406 19.1209 27.406 18.8523C27.406 18.4495 27.406 18.181 27.406 18.0467C27.406 17.9125 27.278 17.6439 27.278 17.5097C27.15 17.3754 27.022 17.2411 26.8941 17.1069C26.7661 16.9726 26.5101 16.9726 26.3822 16.8384C25.7423 16.7041 24.9744 16.5698 24.0786 16.5698C22.0309 16.5698 20.6232 16.7041 20.1113 16.9726C19.8553 17.1069 19.5994 17.2411 19.4714 17.5097C19.2154 17.7782 19.2154 17.9125 19.3434 17.9125C19.9833 18.0467 20.4952 18.3153 20.7512 18.7181L20.8791 18.9866C21.0071 19.1209 21.0071 19.3894 21.1351 19.7922C21.2631 20.195 21.2631 20.5978 21.2631 21.1349C21.2631 21.9404 21.2631 22.746 21.2631 23.2831C21.2631 23.9544 21.1351 24.3572 21.1351 24.76C21.1351 25.1628 21.0071 25.4314 20.8791 25.5656C20.7512 25.8342 20.7512 25.9684 20.6232 25.9684C20.6232 25.9684 20.6232 26.1027 20.4952 26.1027C20.3672 26.1027 20.2392 26.237 19.9833 26.237C19.8553 26.237 19.5994 26.1027 19.4714 25.9684C19.2154 25.8342 18.9595 25.5656 18.8315 25.2971C18.5755 25.0286 18.3196 24.6258 18.0636 24.0887C17.8077 23.5516 17.4237 23.0146 17.1678 22.209L16.9118 21.6719C16.7839 21.4034 16.5279 20.8663 16.272 20.195C16.016 19.5237 15.76 18.9866 15.5041 18.3153C15.3761 18.0468 15.2481 17.9125 15.1202 17.7782H14.9922C14.9922 17.7782 14.8642 17.644 14.7362 17.644C14.6082 17.644 14.4803 17.5097 14.3523 17.5097H9.74511C9.2332 17.5097 8.97725 17.6439 8.84927 17.7782L8.72128 17.9125C8.72128 17.9125 8.72128 18.0467 8.72128 18.181C8.72128 18.3153 8.72129 18.4495 8.84927 18.7181C9.48915 20.3293 10.257 21.9404 11.0249 23.5516C11.7927 25.0286 12.5606 26.3712 13.0725 27.3111C13.7124 28.2509 14.2243 29.1908 14.8642 29.9964C15.5041 30.802 15.888 31.339 16.016 31.6076C16.2719 31.8761 16.3999 32.0104 16.5279 32.1446L16.9118 32.5474C17.1678 32.816 17.5517 33.2188 18.0636 33.6216C18.5755 34.0244 19.2154 34.4272 19.8553 34.83C20.4952 35.2327 21.2631 35.5013 22.0309 35.7698C22.9268 36.0384 23.6946 36.1726 24.4625 36.0384H26.3822C26.7661 36.0384 27.0221 35.9041 27.278 35.6356L27.406 35.5013C27.406 35.367 27.5339 35.367 27.5339 35.2328C27.5339 35.0985 27.5339 34.9642 27.5339 34.6957C27.5339 34.1586 27.534 33.7558 27.6619 33.353C27.7899 32.9502 27.7899 32.6817 27.9179 32.4132C28.0459 32.1447 28.1738 32.0104 28.3018 31.8761C28.4298 31.7418 28.5578 31.6076 28.5578 31.6076H28.6857C28.9417 31.4733 29.3256 31.6076 29.5816 31.8761C29.9655 32.1446 30.3494 32.5474 30.6054 32.9502C30.8613 33.353 31.2453 33.7558 31.7572 34.2929C32.2691 34.83 32.6531 35.2328 32.909 35.367L33.2929 35.6356C33.5489 35.7698 33.8048 35.9041 34.1888 36.0384C34.5727 36.1726 34.8286 36.1726 35.0846 36.1726L39.4359 36.0384C39.8198 36.0384 40.2037 35.9041 40.4597 35.7698C40.7156 35.6356 40.8436 35.5013 40.8436 35.2328C40.8436 35.0985 40.8436 34.83 40.8436 34.6957C40.5876 34.4272 40.5876 34.2929 40.5876 34.1586Z" fill="white"/>
</svg>
