<svg
  width="140"
  height="42"
  viewBox="0 0 140 42"
  fill="none"
  xmlns="http://www.w3.org/2000/svg"
>
  <g clip-path="url(#clip0)">
    <path
      d="M133.41 36.6705C136.137 36.6705 138.068 36.1676 139.507 35.0846V30.1724C138.03 31.2167 136.25 31.8742 133.751 31.8742C129.546 31.8742 127.804 28.5478 127.804 23.2875C127.804 17.7563 129.925 14.9327 133.788 14.9327C136.061 14.9327 138.296 15.745 139.47 16.5186V11.4129C138.22 10.7167 136.061 10.2139 133.107 10.2139C125.57 10.2139 121.669 15.745 121.669 23.4809C121.706 31.9516 125.532 36.6705 133.41 36.6705ZM96.5576 34.4271V29.5148C94.7396 30.7912 91.6339 31.9129 88.7933 31.9129C84.4756 31.9129 82.847 29.8242 82.5819 25.5695H96.8228V22.3978C96.8228 13.5403 92.9974 10.2139 87.1268 10.2139C79.9306 10.2139 76.5219 15.8224 76.5219 23.5195C76.5219 32.3771 80.8018 36.6705 88.301 36.6705C92.0505 36.6705 94.8154 35.6261 96.5576 34.4271ZM42.5105 10.678V20.7346H34.6326V10.678H28.7241V36.1676H34.6326V25.5308H42.5105V36.1676H48.4189V10.678H42.5105ZM75.0448 31.3714H72.4315V10.678H55.2364V12.8441C55.2364 19.0714 54.8576 27.1167 52.7745 31.3714H50.8808V41.9695H56.3347V36.1676H69.553V41.9695H75.0069V31.3714H75.0448ZM115.381 36.1676H122.085L112.616 22.4365L120.949 10.678H115.003L106.67 22.4365V10.678H100.762V36.1676H106.67V23.6356L115.381 36.1676ZM86.9753 14.9327C89.8917 14.9327 90.8007 17.4082 90.8007 20.6186V21.1214H82.5819C82.7334 17.0601 84.1726 14.9327 86.9753 14.9327ZM66.523 31.3714H58.1906C59.8192 27.5422 60.2737 20.5799 60.2737 16.1705V15.3969H66.523V31.3714Z"
      fill="black"
    />
    <path
      d="M23.8004 36.1678H17.7783V5.72727H15.0892C10.1655 5.72727 7.59005 8.24142 7.59005 11.9933C7.59005 16.248 9.37015 18.2207 13.044 20.7348L16.074 22.8235L7.3628 36.1678H0.88623L8.72629 24.2546C4.2192 20.9669 1.6816 17.7565 1.6816 12.3414C1.6816 5.57256 6.30231 0.969727 15.0514 0.969727H23.7625L23.8004 36.1678Z"
      fill="#FC3F1D"
    />
  </g>
  <defs>
    <clipPath id="clip0">
      <rect
        width="139"
        height="41"
        fill="white"
        transform="translate(0.88623 0.969727)"
      />
    </clipPath>
  </defs>
</svg>
