<svg width="339" height="84" viewBox="0 0 339 84" fill="none" xmlns="http://www.w3.org/2000/svg">
<path fill-rule="evenodd" clip-rule="evenodd" d="M116.481 48.2321H131.177C133.126 48.2321 135.643 48.1101 137.267 47.0952C139.662 45.5934 139.824 42.6702 139.824 40.6403C139.824 38.3265 139.54 36.9055 139.012 36.0124C138.282 34.7132 136.82 33.9825 135.278 33.9014V33.7388C136.171 33.5359 137.023 33.0894 137.673 32.4805C139.175 31.0596 139.297 29.314 139.297 27.487C139.297 25.3761 139.134 23.1838 137.551 21.5599C135.765 19.7737 133.451 19.8143 131.583 19.8143H116.643V24.0767H130.365C131.218 24.0767 132.152 24.1173 132.842 24.6858C133.816 25.4976 133.776 26.8374 133.776 27.893C133.776 28.7455 133.816 30.0853 133.085 30.8567C132.476 31.5062 131.177 31.7498 129.35 31.7498H117.05V36.0124H130.041C132.273 36.0124 133.045 36.5806 133.288 36.7835C134.262 37.6362 134.303 39.0976 134.303 39.991C134.303 41.1277 134.222 42.7108 132.923 43.4415C132.07 43.9289 130.041 43.9693 129.553 43.9693H116.481V48.2321ZM144.087 26.7157V30.3695H154.683C155.414 30.3695 156.347 30.4911 156.997 31.3031C157.525 31.9527 157.606 32.6834 157.606 33.333V34.8352H148.268C147.132 34.8352 145.67 34.9161 144.331 36.0935C142.707 37.5144 142.504 39.4225 142.504 41.3306C142.504 42.9137 142.626 45.6745 144.371 47.1765C145.589 48.2321 147.091 48.2321 148.268 48.2321H158.539C159.554 48.2321 160.732 48.1508 161.503 47.3794C162.274 46.6083 162.356 45.3902 162.356 44.6189V33.4548C162.356 31.0596 161.666 29.314 160.772 28.3802C159.798 27.3652 158.134 26.7157 156.307 26.7157H144.087ZM157.606 38.4887V43.4415C157.606 43.7664 157.606 44.0504 157.281 44.3347C156.956 44.5782 156.51 44.5782 156.225 44.5782H149.608C148.999 44.5782 148.39 44.2535 148.066 43.9289C147.497 43.3197 147.416 42.183 147.416 41.5335C147.416 39.991 147.781 39.4225 147.944 39.2196C148.472 38.5294 149.365 38.4887 149.689 38.4887H157.606ZM193.209 48.2321V44.5782H185.496C183.507 44.5782 181.152 44.3753 180.097 42.3048C179.528 41.1683 179.406 39.0976 179.406 37.8393C179.406 37.1898 179.447 34.9161 179.772 33.7794C180.299 31.9527 181.842 30.3695 185.049 30.3695H192.722V26.7157H183.507C179.65 26.7157 177.823 28.1366 176.93 29.0297C174.535 31.5062 174.494 35.2004 174.494 37.758C174.494 40.8028 174.657 43.4822 176.443 45.5934C178.391 47.9072 181.233 48.2321 182.857 48.2321H193.209ZM196.904 26.7157V30.3695H207.499C208.23 30.3695 209.164 30.4911 209.814 31.3031C210.341 31.9527 210.422 32.6834 210.422 33.333V34.8352H201.085C199.948 34.8352 198.487 34.9161 197.147 36.0935C195.523 37.5144 195.32 39.4225 195.32 41.3306C195.32 42.9137 195.442 45.6745 197.188 47.1765C198.406 48.2321 199.908 48.2321 201.085 48.2321H211.356C212.371 48.2321 213.548 48.1508 214.32 47.3794C215.091 46.6083 215.172 45.3902 215.172 44.6189V33.4548C215.172 31.0596 214.482 29.314 213.589 28.3802C212.615 27.3652 210.95 26.7157 209.123 26.7157H196.904ZM210.422 38.4887V43.4415C210.422 43.7664 210.422 44.0504 210.098 44.3347C209.773 44.5782 209.326 44.5782 209.042 44.5782H202.425C201.816 44.5782 201.207 44.2535 200.882 43.9289C200.314 43.3197 200.233 42.183 200.233 41.5335C200.233 39.991 200.598 39.4225 200.76 39.2196C201.288 38.5294 202.181 38.4887 202.506 38.4887H210.422ZM239.49 48.2321V29.7604C239.49 26.5532 237.013 26.4721 236.364 26.4721C235.389 26.4721 234.293 26.7157 233.441 27.9335L223.86 42.0206C223.698 42.2644 223.535 42.5891 223.292 42.5891C222.967 42.5891 222.967 42.3862 222.967 42.0206L223.17 26.7157H218.42V45.4309C218.42 46.5676 218.745 48.4757 221.546 48.4757C223.17 48.4757 223.86 47.9072 224.631 46.7705L234.09 32.927C234.415 32.4398 234.578 32.3585 234.659 32.3585C234.983 32.3585 234.902 32.6023 234.902 32.927L234.74 48.2321H239.49ZM229.016 22.8184C228.082 22.8184 227.027 22.656 226.214 21.8442C225.768 21.3975 225.362 20.6261 225.2 20.0983H221.505C221.952 21.641 222.845 23.3462 223.819 24.1987C225.403 25.6196 227.554 25.7818 229.016 25.7818C230.477 25.7818 232.629 25.6196 234.212 24.1987C235.186 23.3462 236.079 21.641 236.526 20.0983H232.832C232.67 20.6261 232.264 21.3975 231.817 21.8442C231.005 22.656 229.95 22.8184 229.016 22.8184ZM253.942 48.2321V30.3695H262.021V26.7157H241.114V30.3695H249.193V48.2321H253.942ZM264.66 26.7157V30.3695H275.256C275.986 30.3695 276.92 30.4911 277.57 31.3031C278.097 31.9527 278.178 32.6834 278.178 33.333V34.8352H268.841C267.704 34.8352 266.243 34.9161 264.904 36.0935C263.279 37.5144 263.077 39.4225 263.077 41.3306C263.077 42.9137 263.198 45.6745 264.944 47.1765C266.162 48.2321 267.664 48.2321 268.841 48.2321H279.112C280.127 48.2321 281.304 48.1508 282.076 47.3794C282.847 46.6083 282.928 45.3902 282.928 44.6189V33.4548C282.928 31.0596 282.238 29.314 281.345 28.3802C280.371 27.3652 278.706 26.7157 276.879 26.7157H264.66ZM278.178 38.4887V43.4415C278.178 43.7664 278.178 44.0504 277.854 44.3347C277.529 44.5782 277.082 44.5782 276.798 44.5782H270.181C269.572 44.5782 268.963 44.2535 268.638 43.9289C268.07 43.3197 267.989 42.183 267.989 41.5335C267.989 39.991 268.354 39.4225 268.517 39.2196C269.044 38.5294 269.937 38.4887 270.262 38.4887H278.178ZM307.814 32.7241C307.895 32.5616 308.058 32.2369 308.18 32.2369C308.261 32.2369 308.423 32.3992 308.423 32.6427L308.22 48.2321H312.97V29.5575C312.97 27.4463 311.224 26.4721 309.276 26.4721C307.49 26.4721 306.312 27.0406 305.622 28.7859L300.182 42.4673C300.101 42.6702 299.776 43.3197 299.573 43.3197C299.37 43.3197 299.045 42.6702 298.964 42.4673L293.524 28.7859C292.834 27.0406 291.657 26.4721 289.871 26.4721C287.922 26.4721 286.176 27.4463 286.176 29.5575V48.2321H290.926L290.723 32.6427C290.723 32.5209 290.723 32.2774 290.967 32.2774C291.129 32.2774 291.251 32.6023 291.291 32.7241L296.813 46.6894C297.137 47.5419 297.868 48.4757 299.573 48.4757C301.278 48.4757 302.009 47.5419 302.334 46.6894L307.814 32.7241ZM337.288 48.2321V29.7604C337.288 26.5532 334.811 26.4721 334.161 26.4721C333.187 26.4721 332.091 26.7157 331.239 27.9335L321.658 42.0206C321.495 42.2644 321.333 42.5891 321.089 42.5891C320.765 42.5891 320.765 42.3862 320.765 42.0206L320.968 26.7157H316.218V45.4309C316.218 46.5676 316.542 48.4757 319.344 48.4757C320.967 48.4757 321.658 47.9072 322.429 46.7705L331.888 32.927C332.213 32.4398 332.375 32.3585 332.457 32.3585C332.781 32.3585 332.7 32.6023 332.7 32.927L332.538 48.2321H337.288Z" fill="#1F1B20"/>
<path fill-rule="evenodd" clip-rule="evenodd" d="M23.0075 41.5891C23.0075 41.5891 12.9876 48.5974 10.0796 50.4963C7.17158 52.3949 21.1271 49.3437 25.318 47.8308C29.5086 46.318 25.3732 40.6266 23.0075 41.5891Z" fill="#2B2A29"/>
<path fill-rule="evenodd" clip-rule="evenodd" d="M68.3896 21.8152C60.6392 21.3681 49.1737 20.9548 41.6172 21.799C29.2824 23.1764 19.2406 28.0719 11.8485 26.0177C4.45576 23.9634 0.37146 21.0201 0.37146 21.0201C0.37146 21.0201 3.42949 33.3194 11.3918 36.666C19.354 40.013 27.4537 42.4403 26.8416 45.921C26.2299 49.4024 20.2007 48.2231 14.0412 49.1869C7.88149 50.1502 7.93114 52.9779 11.1934 55.0613C14.4554 57.1446 22.6584 62.0317 23.9565 67.2067C25.2544 72.3826 24.7981 83.0305 24.7981 83.0305C24.7981 83.0305 33.2935 78.3726 39.4558 67.9149C43.411 61.203 48.5774 55.7173 52.6414 52.4795C54.908 48.5204 56.6754 44.4187 57.3494 40.3974L45.575 45.7759C42.4091 47.7499 39.3214 47.7398 37.1556 46.6849C36.276 46.2562 35.5373 45.6511 34.9896 44.9266C34.4208 44.1737 34.061 43.2921 33.9619 42.3418C33.7592 40.4025 34.6481 38.2567 37.0912 36.5029C37.5839 36.1491 37.9999 35.9051 38.4252 35.656C38.5288 35.5954 38.6358 35.5325 38.8907 35.3769C39.1108 35.2427 39.4023 35.0668 39.78 34.841C40.0118 34.7023 40.313 34.5242 40.6781 34.31C47.3393 30.399 55.2637 26.5538 63.285 23.5814C64.9844 22.9517 66.6896 22.3604 68.3896 21.8152ZM58.0499 49.3288C61.3401 48.6349 66.1194 40.2786 64.4598 35.0681C63.1791 31.0467 71.1077 25.717 74.8412 23.4682C71.4281 24.353 67.9314 25.4745 64.4521 26.764C56.6013 29.6733 48.8698 33.4224 42.3888 37.2276C42.1594 37.362 41.8698 37.5341 41.5173 37.7449C41.3052 37.8718 41.012 38.0497 40.6543 38.2678C40.5734 38.3172 40.3545 38.4456 40.1357 38.5736C39.7802 38.7821 39.432 38.9863 39.0671 39.248C37.745 40.1972 37.2457 41.1863 37.3303 41.997C37.363 42.3112 37.4908 42.6145 37.695 42.8844C37.9208 43.1829 38.2429 43.4408 38.6408 43.6347C39.8866 44.2415 41.7668 44.1805 43.8262 42.8824C43.9035 42.8302 43.9861 42.7831 44.0739 42.7431L58.5822 36.1157C58.8227 35.9974 59.0946 35.9347 59.3809 35.9436C60.3147 35.973 61.0478 36.7537 61.0187 37.6875C60.8933 41.576 59.7602 45.5024 58.0499 49.3288Z" fill="#E31E24"/>
<path d="M72.3729 19.6232C77.7787 19.6232 82.161 15.2409 82.161 9.83502C82.161 4.42917 77.7787 0.046875 72.3729 0.046875C66.9671 0.046875 62.5847 4.42917 62.5847 9.83502C62.5847 15.2409 66.9671 19.6232 72.3729 19.6232Z" fill="#2B2A29"/>
<path fill-rule="evenodd" clip-rule="evenodd" d="M84.2345 19.944L98.3107 6.19677C103.826 0.809894 110.706 7.81268 106.215 12.1249L88.1611 29.4608L82.0255 45.7947L93.7249 46.156C97.1254 46.7936 96.4566 48.9904 95.2302 51.7096L88.7559 63.1038L88.2368 64.0533C88.2368 64.0533 101.351 71.778 88.9553 69.8018C76.5601 67.8257 74.9429 68.724 75.4818 65.4902C75.6045 64.757 75.893 64.0417 76.266 63.3744H76.2132L82.5191 55.502L70.2861 56.3179L48.7287 77.6954C48.7287 77.6954 61.8427 85.4201 49.4475 83.444C37.0522 81.4679 35.4348 82.3661 35.974 79.1326C36.8977 73.5925 58.7731 54.8428 59.3279 37.6345C54.4775 39.8501 49.627 42.0657 44.7767 44.2813C38.0492 48.5728 32.1294 42.1462 38.0791 37.8755C38.6855 37.4404 39.1968 37.1735 39.7725 36.8225C40.3483 36.471 40.936 36.1194 41.5333 35.7688C53.8706 28.5255 70.6354 21.4981 84.2345 19.944Z" fill="#1F1B20"/>
<path fill-rule="evenodd" clip-rule="evenodd" d="M66.334 25.5954C66.334 25.5954 69.7262 24.4645 74.28 23.2077C78.8339 21.9509 82.4137 21.4058 82.4137 21.4058C82.4137 21.4058 80.3392 35.842 77.9224 40.8973C75.5056 45.9527 70.3804 49.9362 70.3804 49.9362C70.3804 49.9362 69.6589 40.6277 66.334 25.5954Z" fill="#FEFEFE"/>
<path fill-rule="evenodd" clip-rule="evenodd" d="M71.335 25.1838L73.2615 28.7681L75.7481 28.265L77.709 23.5679L74.2931 24.4215L71.335 25.1838Z" fill="#E31E24"/>
<path fill-rule="evenodd" clip-rule="evenodd" d="M73.2392 29.4792L70.5818 40.1487L71.5131 46.6429L76.4471 40.6514L75.7463 29.1023L73.2392 29.4792Z" fill="#E31E24"/>
<path fill-rule="evenodd" clip-rule="evenodd" d="M213.368 67.9787H213.571C212.903 72.682 211.161 76.6015 208.403 76.6015C207.097 76.6015 205.993 75.7304 205.993 73.9013C205.993 73.4369 206.081 72.9142 206.371 72.4787C206.139 72.0722 205.529 71.84 205.151 71.84C203.409 71.84 202.742 73.1755 202.742 74.424C202.742 77.1822 205.181 78.4886 208.055 78.4886C214.268 78.4886 217.723 71.1142 217.723 63.5946C217.723 58.9784 215.952 55.9009 211.626 55.9009C209.39 55.9009 206.023 56.8009 206.023 59.9655C206.023 61.0397 206.719 62.0268 207.764 62.0268C208.229 62.0268 208.81 61.8526 209.216 61.5624C208.868 60.9526 208.752 60.4591 208.752 59.6751C208.752 58.5138 209.855 57.7589 210.958 57.7589C212.99 57.7589 213.89 60.0815 213.89 63.5366C213.89 64.4946 213.832 65.4237 213.745 66.3819C213.484 66.2657 213.165 66.2076 212.816 66.2076C211.045 66.2076 209.652 66.9043 208.258 66.2076C207.561 67.1076 208.345 68.5883 209.855 68.5883C211.045 68.5883 212.148 67.9787 213.368 67.9787ZM223.268 65.1914C223.529 64.0881 222.92 63.5946 221.875 63.5946C220.655 63.5946 219.61 64.2043 218.623 64.9881C218.042 65.4528 218.245 66.3528 218.623 66.585C218.884 66.3528 219.058 66.2365 219.203 66.2365C219.465 66.2365 219.61 66.4979 219.494 66.9625L217.113 78.1113C217.461 78.3435 217.955 78.4886 218.478 78.4886C219.523 78.4886 220.626 77.995 220.917 76.6595L222.687 68.3852C223.471 67.4561 224.313 66.8754 225.358 66.8754C226.317 66.8754 226.258 67.6592 226.055 68.5883L224.023 78.1113C224.371 78.3435 224.865 78.4886 225.388 78.4886C226.433 78.4886 227.536 77.995 227.826 76.6595L229.626 68.211C230.381 67.3981 231.165 66.8754 232.152 66.8754C233.11 66.8754 233.081 67.6592 232.849 68.5883L231.63 74.366C230.904 77.7628 232.443 78.4886 233.894 78.4886C235.839 78.4886 237.785 77.153 239.149 75.6144C239.323 75.4111 239.41 75.1789 239.41 74.9755C239.41 74.6853 239.236 74.424 238.917 74.2789C238.191 75.0046 236.943 75.7304 235.869 75.7304C235.288 75.7304 234.91 75.3822 235.085 74.5402L236.507 67.8625C237.262 64.4657 235.375 63.5946 234.068 63.5946C232.385 63.5946 230.933 64.843 229.713 66.585C229.801 64.5237 228.465 63.5946 227.275 63.5946C225.62 63.5946 224.168 64.785 222.978 66.4979L223.268 65.1914ZM246.001 63.4786C241.617 63.4786 238.568 68.9658 238.568 73.3498C238.568 76.0788 239.846 78.4886 242.836 78.4886C247.395 78.4886 250.501 73.0013 250.501 68.6754C250.501 65.8301 249.166 63.4786 246.001 63.4786ZM246.64 65.685C247.83 65.685 248.324 66.8754 248.324 68.4432C248.324 71.4916 246.465 75.9628 244.172 75.9628C243.156 75.9628 242.285 74.9755 242.285 72.4207C242.285 69.5754 243.998 65.685 246.64 65.685ZM268.531 75.7015C266.963 75.7015 266.15 72.1305 265.773 70.4756C267.573 69.2561 269.837 66.7012 269.837 64.9592C269.837 64.2335 269.315 63.5946 268.328 63.5946C267.892 63.5946 267.398 63.6817 266.934 63.9139C266.237 67.0205 264.292 69.6625 262.898 70.098L262.637 70.1852L263.711 65.1914C263.944 64.0881 263.363 63.5946 262.318 63.5946C261.098 63.5946 260.053 64.2043 259.066 64.9881C258.485 65.4528 258.689 66.3528 259.066 66.585C259.327 66.3528 259.501 66.2365 259.647 66.2365C259.908 66.2365 260.024 66.4979 259.937 66.9625L257.585 78.1984C257.934 78.4306 258.282 78.4886 258.805 78.4886C259.85 78.4886 260.953 77.995 261.243 76.6595L262.289 71.7529L262.927 71.5787C263.363 73.8433 264.118 78.4886 267.021 78.4886C268.995 78.4886 270.737 77.1242 270.737 75.0917C270.737 74.5982 270.418 74.3078 269.866 74.3078C269.634 75.2951 269.286 75.7015 268.531 75.7015ZM288.593 78.4886C290.538 78.4886 292.164 77.153 293.529 75.6144C293.703 75.4111 293.79 75.1789 293.79 74.9755C293.79 74.6853 293.616 74.424 293.296 74.2789C292.57 75.0046 291.322 75.7304 290.248 75.7304C289.493 75.7304 289.028 75.208 289.377 73.582L291.409 63.9721C291.061 63.7397 290.567 63.5946 290.044 63.5946C288.999 63.5946 288.012 64.0881 287.722 65.4237L286.822 69.6045C285.718 69.7207 284.528 69.8078 283.222 69.8367L284.238 65.1914C284.499 64.0881 283.889 63.5946 282.844 63.5946C281.625 63.5946 280.58 64.2043 279.593 64.9881C279.012 65.4528 279.215 66.3528 279.593 66.585C279.854 66.3528 280.028 66.2365 280.173 66.2365C280.435 66.2365 280.58 66.4979 280.464 66.9625L278.054 78.1113C278.402 78.3435 278.896 78.4886 279.418 78.4886C280.464 78.4886 281.48 77.995 281.77 76.6595L282.815 71.8109C284.093 71.7529 285.399 71.4627 286.502 71.1142L285.922 73.9304C285.138 77.6757 287.141 78.4886 288.593 78.4886ZM306.622 63.9721C306.274 63.7397 305.78 63.5946 305.258 63.5946C304.532 63.5946 303.777 63.8559 303.284 64.4366C302.558 63.7979 301.6 63.4786 300.293 63.4786C296.257 63.4786 292.977 68.5303 292.977 73.6111C292.977 75.4693 293.587 78.4886 296.606 78.4886C298.261 78.4886 299.8 77.2693 301.019 75.5562C300.99 77.8499 302.354 78.4886 303.719 78.4886C305.345 78.4886 307.726 77.1242 307.726 75.0917C307.726 74.5982 307.406 74.3078 306.855 74.3078C306.419 75.3531 305.751 75.7015 305.229 75.7015C304.648 75.7015 304.271 75.0626 304.59 73.582L306.622 63.9721ZM298.145 75.4982C297.245 75.4982 296.577 74.8595 296.577 73.4078C296.577 70.2432 297.825 65.6559 301.338 65.6559C301.774 65.6559 302.209 65.7141 302.703 65.8883L301.077 73.6691C300.293 74.7433 299.074 75.4982 298.145 75.4982ZM317.916 63.8268C316.929 63.5657 315.1 63.3624 313.619 63.3624C311.965 63.3624 310.397 64.0592 310.397 65.8592C310.397 66.3528 310.6 66.8754 311.006 67.3399C311.79 66.469 312.864 66.0625 314.345 65.8592C312.255 73.6691 310.803 75.1789 309.293 76.108C309.293 75.5273 309.409 74.6562 309.787 73.8433C309.409 73.582 308.945 73.4369 308.597 73.4369C307.522 73.4369 306.564 73.8433 306.564 75.2369C306.564 77.3564 307.435 78.5177 308.626 78.4886C309.729 78.4597 311.151 77.3853 312.458 75.1209C313.3 73.6982 314.113 71.724 314.955 68.8787L315.158 76.9788C315.216 78.3435 316.232 78.7208 317.597 78.3726L322.503 68.9658L321.749 73.9304C321.168 77.7048 322.997 78.4886 324.449 78.4886C326.074 78.4886 328.455 77.1242 328.455 75.0917C328.455 74.5982 328.136 74.3078 327.584 74.3078C327.149 75.3531 326.481 75.7015 325.958 75.7015C325.378 75.7015 325.116 75.0917 325.32 73.582L326.655 63.9721C326.278 63.7397 325.784 63.5946 325.262 63.5946C324.216 63.5946 323.578 64.0881 322.794 65.5108L318.293 73.6982L317.916 63.8268ZM338.385 56.5687C338.036 56.3362 337.513 56.1911 336.991 56.1911C335.917 56.1911 334.784 56.6847 334.494 58.0493L331.678 72.74C331.91 72.8853 332.258 73.0013 332.607 73.0013C333.333 73.0013 334.059 72.6529 334.291 71.7529L338.385 56.5687ZM330.168 76.9208C330.081 78.053 330.952 78.9532 332.084 78.9532C333.217 78.9532 334.146 78.053 334.233 76.9208C334.291 75.7886 333.42 74.8884 332.288 74.8884C331.155 74.8884 330.226 75.7886 330.168 76.9208Z" fill="#E31E24"/>
</svg>
