<svg width="20" height="21" viewBox="0 0 20 21" fill="none" xmlns="http://www.w3.org/2000/svg">
<path d="M16.9241 0.773438H2.89569C1.31184 0.773438 0.105103 1.98018 0.105103 3.56403V17.5924C0.105103 19.1762 1.31184 20.383 2.89569 20.383H16.9241C18.5079 20.383 19.7146 19.1762 19.7146 17.5924V3.56403C19.7146 1.98018 18.5079 0.773438 16.9241 0.773438ZM9.90987 16.4611C13.153 16.4611 15.7927 13.8967 15.7927 10.8045C15.7927 10.2765 15.7173 9.67315 15.5665 9.22062H17.2257V17.2153C17.2257 17.5924 16.9241 17.9695 16.4715 17.9695H3.34822C2.97111 17.9695 2.59401 17.6678 2.59401 17.2153V9.1452H4.3287C4.17786 9.67315 4.10243 10.2011 4.10243 10.7291C4.02701 13.8967 6.66676 16.4611 9.90987 16.4611ZM9.90987 14.1984C7.79808 14.1984 6.13881 12.5392 6.13881 10.5028C6.13881 8.46641 7.79808 6.80714 9.90987 6.80714C12.0217 6.80714 13.6809 8.46641 13.6809 10.5028C13.6809 12.6146 12.0217 14.1984 9.90987 14.1984ZM17.1503 6.12835C17.1503 6.58088 16.7732 6.95799 16.3207 6.95799H14.2089C13.7564 6.95799 13.3793 6.58088 13.3793 6.12835V4.09197C13.3793 3.63945 13.7564 3.26234 14.2089 3.26234H16.3207C16.7732 3.26234 17.1503 3.63945 17.1503 4.09197V6.12835Z" fill="black"/>
</svg>
