<svg width="21" height="18" viewBox="0 0 21 18" fill="none" xmlns="http://www.w3.org/2000/svg">
<path d="M7.61272 4.88971L7.61278 4.88968L7.60988 4.88207C7.26111 3.96842 7.07275 2.99029 7.07275 1.97088C7.07275 1.15336 6.3286 0.605469 5.57275 0.605469H2.07275C1.3169 0.605469 0.572754 1.15336 0.572754 1.97088C0.572754 10.4386 8.4769 17.1828 18.0728 17.1828C18.8286 17.1828 19.5728 16.6349 19.5728 15.8174V12.7971C19.5728 11.9796 18.8286 11.4317 18.0728 11.4317C16.8795 11.4317 15.7165 11.2652 14.6422 10.9583C14.1397 10.8102 13.5617 10.9166 13.1556 11.2681L11.1981 12.9621C8.72211 11.8039 6.68186 10.0565 5.34045 7.94771L7.21995 6.32118C7.65077 5.94834 7.79611 5.39467 7.61272 4.88971Z" fill="black" stroke="black"/>
</svg>
