<svg width="26" height="16" viewBox="0 0 26 16" fill="none" xmlns="http://www.w3.org/2000/svg">
<path d="M25.6808 13.7479C25.6808 13.6438 25.5815 13.6438 25.5815 13.5396C25.1845 12.7065 24.2911 11.6651 23.0999 10.5195C22.5044 9.99884 22.2066 9.58227 22.008 9.37399C21.7103 8.95743 21.7103 8.64501 21.8095 8.22845C21.9088 7.91603 22.3058 7.39531 23.0007 6.45805C23.3977 5.93734 23.5962 5.62493 23.894 5.31251C25.383 3.22969 26.0778 1.87585 25.8793 1.25101L25.7801 1.14688C25.6808 1.04274 25.5815 0.938598 25.383 0.938598C25.1845 0.834457 24.8867 0.834457 24.5889 0.938598H20.8169C20.7176 0.938598 20.7176 0.938598 20.5191 0.938598C20.4198 0.938598 20.3206 0.938598 20.3206 0.938598H20.2213H20.122L20.0228 1.04273C19.9235 1.14687 19.9235 1.14687 19.9235 1.25101C19.5265 2.39656 19.0301 3.33382 18.5338 4.37523C18.236 4.89593 17.9383 5.41665 17.6405 5.83321C17.3427 6.24977 17.1441 6.56219 16.9456 6.77047C16.7471 6.97875 16.5486 7.08289 16.4493 7.29117C16.35 7.39532 16.1515 7.49946 16.1515 7.39532C16.0523 7.39532 15.953 7.39532 15.953 7.29117C15.8537 7.18703 15.7545 7.08289 15.6552 6.97875C15.5559 6.87461 15.5559 6.66633 15.4567 6.45805C15.4567 6.24976 15.4567 6.04148 15.4567 5.93734C15.4567 5.8332 15.4567 5.52079 15.4567 5.31251C15.4567 5.00008 15.4567 4.7918 15.4567 4.68766C15.4567 4.37523 15.4567 3.95868 15.4567 3.54212C15.4567 3.12555 15.4567 2.81312 15.4567 2.60484C15.4567 2.39656 15.4567 2.08414 15.4567 1.87586C15.4567 1.56344 15.4567 1.35515 15.4567 1.25101C15.4567 1.14687 15.3574 0.938592 15.3574 0.834451C15.2582 0.73031 15.1589 0.626166 15.0596 0.522025C14.9603 0.417885 14.7618 0.417888 14.6626 0.313747C14.1662 0.209606 13.5707 0.105469 12.8758 0.105469C11.2876 0.105469 10.1957 0.209613 9.79867 0.417894C9.60015 0.522035 9.40162 0.626169 9.30236 0.834451C9.10383 1.04273 9.10382 1.14688 9.20309 1.14688C9.6994 1.25102 10.0965 1.45929 10.295 1.77171L10.3943 1.98001C10.4935 2.08415 10.4935 2.29242 10.5928 2.60484C10.692 2.91726 10.692 3.22968 10.692 3.64625C10.692 4.27109 10.692 4.89594 10.692 5.31251C10.692 5.83321 10.5928 6.14562 10.5928 6.45805C10.5928 6.77047 10.4935 6.97875 10.3943 7.0829C10.295 7.29118 10.295 7.39532 10.1957 7.39532C10.1957 7.39532 10.1957 7.49945 10.0964 7.49945C9.99719 7.49945 9.89793 7.6036 9.6994 7.6036C9.60014 7.6036 9.40162 7.49946 9.30236 7.39532C9.10383 7.29118 8.9053 7.0829 8.80604 6.87462C8.60751 6.66634 8.40898 6.3539 8.21045 5.93734C8.01193 5.52078 7.71413 5.10422 7.5156 4.47938L7.31709 4.06282C7.21783 3.85454 7.0193 3.43797 6.82077 2.91727C6.62225 2.39656 6.42372 1.98001 6.22519 1.4593C6.12593 1.25102 6.02667 1.14687 5.92741 1.04273H5.82814C5.82814 1.04273 5.72887 0.938598 5.6296 0.938598C5.53034 0.938598 5.43109 0.834451 5.33183 0.834451H1.75834C1.36129 0.834451 1.16277 0.938588 1.0635 1.04273L0.964233 1.14688C0.964233 1.14688 0.964233 1.25101 0.964233 1.35515C0.964233 1.4593 0.964239 1.56343 1.0635 1.77171C1.55982 3.0214 2.1554 4.2711 2.75098 5.52078C3.34655 6.66633 3.94214 7.70774 4.33919 8.43673C4.83551 9.16571 5.23256 9.8947 5.72887 10.5195C6.22519 11.1444 6.52297 11.5609 6.62224 11.7692C6.82076 11.9775 6.92002 12.0816 7.01928 12.1858L7.31709 12.4982C7.51562 12.7065 7.8134 13.0189 8.21045 13.3313C8.60751 13.6438 9.10382 13.9562 9.60013 14.2686C10.0964 14.581 10.692 14.7893 11.2876 14.9976C11.9825 15.2059 12.578 15.31 13.1736 15.2059H14.6626C14.9604 15.2059 15.1589 15.1017 15.3574 14.8935L15.4567 14.7893C15.4567 14.6852 15.5559 14.6852 15.5559 14.581C15.5559 14.4769 15.5559 14.3728 15.5559 14.1645C15.5559 13.7479 15.5559 13.4355 15.6552 13.1231C15.7545 12.8106 15.7545 12.6024 15.8537 12.3941C15.953 12.1858 16.0523 12.0816 16.1515 11.9775C16.2508 11.8734 16.3501 11.7692 16.3501 11.7692H16.4493C16.6478 11.6651 16.9456 11.7692 17.1441 11.9775C17.4419 12.1858 17.7397 12.4982 17.9382 12.8106C18.1368 13.1231 18.4346 13.4355 18.8316 13.852C19.2287 14.2686 19.5265 14.581 19.725 14.6852L20.0228 14.8935C20.2213 14.9976 20.4198 15.1017 20.7176 15.2059C21.0154 15.31 21.2139 15.31 21.4125 15.31L24.7874 15.2059C25.0852 15.2059 25.383 15.1017 25.5815 14.9976C25.78 14.8935 25.8793 14.7893 25.8793 14.581C25.8793 14.4769 25.8793 14.2686 25.8793 14.1645C25.6808 13.9562 25.6808 13.852 25.6808 13.7479Z" fill="black"/>
</svg>
