<svg width="19" height="20" viewBox="0 0 19 20" fill="none" xmlns="http://www.w3.org/2000/svg">
<path d="M15.7903 3.47565C14.0572 1.74856 11.7464 0.789062 9.30723 0.789062C4.23627 0.789062 0.128153 4.88292 0.128153 9.93627C0.128153 11.5354 0.57748 13.1346 1.34775 14.4779L0.0639648 19.2114L4.94236 17.9321C6.29033 18.6357 7.76668 19.0195 9.30723 19.0195C14.3782 19.0195 18.4863 14.9257 18.4863 9.8723C18.4221 7.50554 17.5235 5.20275 15.7903 3.47565ZM13.7363 13.1986C13.5437 13.7103 12.6451 14.222 12.1957 14.286C11.8106 14.35 11.2971 14.35 10.7836 14.222C10.4626 14.0941 10.0133 13.9662 9.4998 13.7103C7.18898 12.7508 5.71263 10.448 5.58425 10.2561C5.45587 10.1282 4.62141 9.04074 4.62141 7.88934C4.62141 6.73794 5.19911 6.22621 5.39168 5.97034C5.58425 5.71448 5.841 5.71448 6.03357 5.71448C6.16195 5.71448 6.35452 5.71448 6.4829 5.71448C6.61128 5.71448 6.80384 5.65051 6.99641 6.09828C7.18898 6.54604 7.63831 7.69744 7.70249 7.76141C7.76668 7.88934 7.76668 8.01727 7.70249 8.14521C7.63831 8.27314 7.57412 8.40107 7.44574 8.529C7.31736 8.65694 7.18898 8.84883 7.12479 8.9128C6.99641 9.04073 6.86803 9.16867 6.99641 9.36057C7.12479 9.61643 7.57412 10.3201 8.2802 10.9597C9.17885 11.7273 9.88493 11.9832 10.1417 12.1111C10.3984 12.2391 10.5268 12.1751 10.6552 12.0472C10.7836 11.9192 11.2329 11.4075 11.3613 11.1516C11.4897 10.8958 11.6822 10.9597 11.8748 11.0237C12.0674 11.0877 13.2228 11.6634 13.4153 11.7913C13.6721 11.9192 13.8005 11.9832 13.8647 12.0472C13.9289 12.2391 13.9289 12.6868 13.7363 13.1986Z" fill="black"/>
</svg>
